{
    "asset" : {
        "generator" : "Khronos glTF Blender I/O v1.1.46",
        "version" : "2.0"
    },
    "scene" : 0,
    "scenes" : [
        {
            "name" : "Scene",
            "nodes" : [
                0,
                1,
                112,
                113
            ]
        }
    ],
    "nodes" : [
        {
            "name" : "Light",
            "rotation" : [
                0.16907575726509094,
                0.7558803558349609,
                -0.27217137813568115,
                0.570947527885437
            ],
            "translation" : [
                4.076245307922363,
                5.903861999511719,
                -1.0054539442062378
            ]
        },
        {
            "name" : "Camera",
            "rotation" : [
                0.483536034822464,
                0.33687159419059753,
                -0.20870360732078552,
                0.7804827094078064
            ],
            "translation" : [
                7.358891487121582,
                4.958309173583984,
                6.925790786743164
            ]
        },
        {
            "name" : "polySurface1"
        },
        {
            "name" : "polySurface10"
        },
        {
            "name" : "polySurface11"
        },
        {
            "name" : "polySurface12"
        },
        {
            "name" : "polySurface13"
        },
        {
            "name" : "polySurface14"
        },
        {
            "name" : "polySurface15"
        },
        {
            "name" : "polySurface16"
        },
        {
            "name" : "polySurface17"
        },
        {
            "name" : "polySurface18"
        },
        {
            "name" : "polySurface19"
        },
        {
            "name" : "polySurface2"
        },
        {
            "name" : "polySurface20"
        },
        {
            "name" : "polySurface21"
        },
        {
            "name" : "polySurface22"
        },
        {
            "name" : "polySurface23"
        },
        {
            "name" : "polySurface24"
        },
        {
            "name" : "polySurface25"
        },
        {
            "name" : "polySurface26"
        },
        {
            "name" : "polySurface27"
        },
        {
            "name" : "polySurface28"
        },
        {
            "name" : "polySurface29"
        },
        {
            "name" : "polySurface3"
        },
        {
            "name" : "polySurface30"
        },
        {
            "name" : "polySurface31"
        },
        {
            "name" : "polySurface32"
        },
        {
            "name" : "polySurface33"
        },
        {
            "name" : "polySurface34"
        },
        {
            "name" : "polySurface35"
        },
        {
            "name" : "polySurface36"
        },
        {
            "name" : "polySurface37"
        },
        {
            "name" : "polySurface38"
        },
        {
            "name" : "polySurface39"
        },
        {
            "name" : "polySurface4"
        },
        {
            "name" : "polySurface40"
        },
        {
            "name" : "polySurface41"
        },
        {
            "name" : "polySurface42"
        },
        {
            "name" : "polySurface43"
        },
        {
            "name" : "polySurface44"
        },
        {
            "name" : "polySurface45"
        },
        {
            "name" : "polySurface46"
        },
        {
            "name" : "polySurface47"
        },
        {
            "name" : "polySurface48"
        },
        {
            "name" : "polySurface49"
        },
        {
            "name" : "polySurface5"
        },
        {
            "name" : "polySurface50"
        },
        {
            "name" : "polySurface51"
        },
        {
            "name" : "polySurface52"
        },
        {
            "name" : "polySurface53"
        },
        {
            "name" : "polySurface54"
        },
        {
            "name" : "polySurface55"
        },
        {
            "name" : "polySurface56"
        },
        {
            "name" : "polySurface57"
        },
        {
            "name" : "polySurface6"
        },
        {
            "name" : "polySurface7"
        },
        {
            "name" : "polySurface8"
        },
        {
            "name" : "polySurface9"
        },
        {
            "children" : [
                2,
                3,
                4,
                5,
                6,
                7,
                8,
                9,
                10,
                11,
                12,
                13,
                14,
                15,
                16,
                17,
                18,
                19,
                20,
                21,
                22,
                23,
                24,
                25,
                26,
                27,
                28,
                29,
                30,
                31,
                32,
                33,
                34,
                35,
                36,
                37,
                38,
                39,
                40,
                41,
                42,
                43,
                44,
                45,
                46,
                47,
                48,
                49,
                50,
                51,
                52,
                53,
                54,
                55,
                56,
                57,
                58
            ],
            "name" : "hairStrands_v1:Group65465"
        },
        {
            "name" : "hairStrands_v2:Group45759"
        },
        {
            "name" : "hairStrands_v2:Group51452"
        },
        {
            "name" : "hairStrands_v2:Group51467"
        },
        {
            "name" : "hairStrands_v2:Group51482"
        },
        {
            "name" : "hairStrands_v2:Group52525"
        },
        {
            "name" : "hairStrands_v2:Group52555"
        },
        {
            "name" : "hairStrands_v2:Group52596"
        },
        {
            "name" : "hairStrands_v2:Group52598"
        },
        {
            "name" : "hairStrands_v2:Group52629"
        },
        {
            "name" : "hairStrands_v2:Group52652"
        },
        {
            "name" : "hairStrands_v2:Group52692"
        },
        {
            "name" : "hairStrands_v3:Group52651"
        },
        {
            "children" : [
                60,
                61,
                62,
                63,
                64,
                65,
                66,
                67,
                68,
                69,
                70,
                71
            ],
            "name" : "hairStrands_v2:hairStrands_v2"
        },
        {
            "name" : "cylBottom_01",
            "translation" : [
                0.05118939280509949,
                -11.251260757446289,
                119.07488250732422
            ]
        },
        {
            "name" : "cylBottom_02",
            "translation" : [
                -0.35963159799575806,
                -11.79976749420166,
                120.4636459350586
            ]
        },
        {
            "name" : "cylTop_02",
            "rotation" : [
                0.12329132854938507,
                0.25593459606170654,
                -0.3833118975162506,
                0.8788451552391052
            ],
            "translation" : [
                -1.5192501544952393,
                -10.826231002807617,
                135.33714294433594
            ]
        },
        {
            "name" : "cyltTop_01",
            "rotation" : [
                -0.16441994905471802,
                0.3236159086227417,
                0.15875600278377533,
                0.9181695580482483
            ],
            "translation" : [
                -0.8917447328567505,
                -11.219280242919922,
                134.7586669921875
            ]
        },
        {
            "name" : "hairStrands_v2:polySurface28"
        },
        {
            "name" : "hairStrands_v2:polySurface8"
        },
        {
            "name" : "polySurface102",
            "translation" : [
                -33.02347183227539,
                0,
                66.81066131591797
            ]
        },
        {
            "name" : "polySurface58"
        },
        {
            "name" : "polySurface59"
        },
        {
            "name" : "polySurface60"
        },
        {
            "mesh" : 0,
            "name" : "polySurface61_surfaceShader1_0"
        },
        {
            "children" : [
                83
            ],
            "name" : "polySurface61"
        },
        {
            "name" : "polySurface62"
        },
        {
            "name" : "polySurface63"
        },
        {
            "name" : "polySurface64"
        },
        {
            "name" : "polySurface66"
        },
        {
            "name" : "polySurface67"
        },
        {
            "name" : "polySurface68"
        },
        {
            "name" : "polySurface69"
        },
        {
            "name" : "polySurface70"
        },
        {
            "name" : "polySurface71"
        },
        {
            "name" : "polySurface72"
        },
        {
            "name" : "polySurface74"
        },
        {
            "name" : "polySurface75"
        },
        {
            "name" : "polySurface76"
        },
        {
            "name" : "polySurface77"
        },
        {
            "name" : "polySurface78"
        },
        {
            "name" : "polySurface80"
        },
        {
            "name" : "polySurface81"
        },
        {
            "name" : "polySurface82"
        },
        {
            "name" : "polySurface83"
        },
        {
            "name" : "polySurface84"
        },
        {
            "name" : "polySurface85"
        },
        {
            "name" : "polySurface86"
        },
        {
            "name" : "polySurface87"
        },
        {
            "children" : [
                73,
                74,
                75,
                76,
                77,
                78,
                79,
                80,
                81,
                82,
                84,
                85,
                86,
                87,
                88,
                89,
                90,
                91,
                92,
                93,
                94,
                95,
                96,
                97,
                98,
                99,
                100,
                101,
                102,
                103,
                104,
                105,
                106,
                107
            ],
            "name" : "mathilde_full_002:polySurface1"
        },
        {
            "children" : [
                59,
                72,
                108
            ],
            "name" : "RootNode"
        },
        {
            "children" : [
                109
            ],
            "name" : "2ad6d7c363c84b70a2c25b695ac40055.fbx",
            "rotation" : [
                0.7071068286895752,
                0,
                0,
                0.7071067094802856
            ]
        },
        {
            "children" : [
                110
            ],
            "name" : "RootNode (model correction matrix)"
        },
        {
            "children" : [
                111
            ],
            "name" : "RootNode (gltf orientation matrix)",
            "rotation" : [
                1,
                0,
                0,
                -1.3435885648505064e-07
            ]
        },
        {
            "mesh" : 1,
            "name" : "Cube",
            "rotation" : [
                0.7071068286895752,
                0,
                0,
                0.7071067094802856
            ]
        }
    ],
    "materials" : [
        {
            "doubleSided" : true,
            "emissiveFactor" : [
                0,
                0,
                0
            ],
            "name" : "surfaceShader1.001",
            "pbrMetallicRoughness" : {
                "baseColorTexture" : {
                    "index" : 0,
                    "texCoord" : 0
                },
                "metallicFactor" : 0,
                "roughnessFactor" : 0.5
            }
        },
        {
            "doubleSided" : true,
            "emissiveFactor" : [
                0,
                0,
                0
            ],
            "name" : "Material",
            "normalTexture" : {
                "index" : 1,
                "texCoord" : 0
            },
            "pbrMetallicRoughness" : {
                "baseColorTexture" : {
                    "index" : 2,
                    "texCoord" : 0
                },
                "metallicFactor" : 0,
                "roughnessFactor" : 0.4000000059604645
            }
        }
    ],
    "meshes" : [
        {
            "name" : "polySurface61_surfaceShader1_0.001",
            "primitives" : [
                {
                    "attributes" : {
                        "POSITION" : 0,
                        "NORMAL" : 1,
                        "TEXCOORD_0" : 2
                    },
                    "indices" : 3,
                    "material" : 0
                }
            ]
        },
        {
            "name" : "Cube.001",
            "primitives" : [
                {
                    "attributes" : {
                        "POSITION" : 4,
                        "NORMAL" : 5,
                        "TEXCOORD_0" : 6
                    },
                    "indices" : 7,
                    "material" : 1
                }
            ]
        }
    ],
    "textures" : [
        {
            "source" : 0
        },
        {
            "source" : 1
        },
        {
            "source" : 2
        }
    ],
    "images" : [
        {
            "mimeType" : "image/png",
            "name" : "surfaceShader1_baseColor",
            "uri" : "surfaceShader1_baseColor.png"
        },
        {
            "mimeType" : "image/png",
            "name" : "brick_normal",
            "uri" : "brick_normal.png"
        },
        {
            "mimeType" : "image/png",
            "name" : "brick_albedo",
            "uri" : "brick_albedo.png"
        }
    ],
    "accessors" : [
        {
            "bufferView" : 0,
            "componentType" : 5126,
            "count" : 35806,
            "max" : [
                48.26280212402344,
                21.180585861206055,
                190.5526123046875
            ],
            "min" : [
                -34.388694763183594,
                -31.790964126586914,
                -0.25727999210357666
            ],
            "type" : "VEC3"
        },
        {
            "bufferView" : 1,
            "componentType" : 5126,
            "count" : 35806,
            "type" : "VEC3"
        },
        {
            "bufferView" : 2,
            "componentType" : 5126,
            "count" : 35806,
            "type" : "VEC2"
        },
        {
            "bufferView" : 3,
            "componentType" : 5123,
            "count" : 170466,
            "type" : "SCALAR"
        },
        {
            "bufferView" : 4,
            "componentType" : 5126,
            "count" : 62,
            "max" : [
                316.7167053222656,
                246.93759155273438,
                48.012115478515625
            ],
            "min" : [
                -316.7167053222656,
                -386.495849609375,
                -585.4212646484375
            ],
            "type" : "VEC3"
        },
        {
            "bufferView" : 5,
            "componentType" : 5126,
            "count" : 62,
            "type" : "VEC3"
        },
        {
            "bufferView" : 6,
            "componentType" : 5126,
            "count" : 62,
            "type" : "VEC2"
        },
        {
            "bufferView" : 7,
            "componentType" : 5123,
            "count" : 84,
            "type" : "SCALAR"
        }
    ],
    "bufferViews" : [
        {
            "buffer" : 0,
            "byteLength" : 429672,
            "byteOffset" : 0
        },
        {
            "buffer" : 0,
            "byteLength" : 429672,
            "byteOffset" : 429672
        },
        {
            "buffer" : 0,
            "byteLength" : 286448,
            "byteOffset" : 859344
        },
        {
            "buffer" : 0,
            "byteLength" : 340932,
            "byteOffset" : 1145792
        },
        {
            "buffer" : 0,
            "byteLength" : 744,
            "byteOffset" : 1486724
        },
        {
            "buffer" : 0,
            "byteLength" : 744,
            "byteOffset" : 1487468
        },
        {
            "buffer" : 0,
            "byteLength" : 496,
            "byteOffset" : 1488212
        },
        {
            "buffer" : 0,
            "byteLength" : 168,
            "byteOffset" : 1488708
        }
    ],
    "buffers" : [
        {
            "byteLength" : 1488876,
            "uri" : "matilda.bin"
        }
    ]
}
